<svg width="33" height="32" viewBox="0 0 33 32" fill="none" xmlns="http://www.w3.org/2000/svg">
<path d="M28.875 28L20.625 20M4.125 13.3333C4.125 14.559 4.37396 15.7727 4.85766 16.905C5.34136 18.0374 6.05033 19.0663 6.9441 19.933C7.83786 20.7997 8.89891 21.4872 10.0667 21.9562C11.2344 22.4253 12.486 22.6667 13.75 22.6667C15.014 22.6667 16.2656 22.4253 17.4333 21.9562C18.6011 21.4872 19.6621 20.7997 20.5559 19.933C21.4497 19.0663 22.1586 18.0374 22.6423 16.905C23.126 15.7727 23.375 14.559 23.375 13.3333C23.375 12.1077 23.126 10.894 22.6423 9.76162C22.1586 8.62925 21.4497 7.60035 20.5559 6.73367C19.6621 5.86699 18.6011 5.1795 17.4333 4.71046C16.2656 4.24141 15.014 4 13.75 4C12.486 4 11.2344 4.24141 10.0667 4.71046C8.89891 5.1795 7.83786 5.86699 6.9441 6.73367C6.05033 7.60035 5.34136 8.62925 4.85766 9.76162C4.37396 10.894 4.125 12.1077 4.125 13.3333Z" stroke="black" stroke-width="2.66667" stroke-linecap="round" stroke-linejoin="round"/>
</svg>
